<svg xmlns="http://www.w3.org/2000/svg" class="h-[1.875rem] lg:h-[clamp(1rem,0rem+1.563vw,1.875rem)] text-black dark:text-white transition-mode will-change-transform" fill="none" viewBox="0 0 1024 186">
<path d="M161.511 112.482C164.805 106.855 172.984 106.855 176.242 112.482L211.241 172.457C214.535 178.085 210.409 185.091 203.857 185.091H133.86C127.308 185.091 123.218 178.085 126.476 172.457L161.475 112.482H161.511Z" fill="#FF394A"></path>
<path d="M140.371 72.5458C143.556 66.9549 143.556 60.0569 140.371 54.4298L111.67 4.22042C108.449 -1.40681 100.414 -1.40681 97.1926 4.22042L1.13505 172.42C-2.08617 178.047 1.9313 185.09 8.37373 185.09H65.7402C72.1464 185.09 78.0462 181.641 81.2311 176.051L140.335 72.5458H140.371Z" fill="#FF394A"></path>
<path d="M338.898 171.077V185.091H330.574C320.621 185.091 316.893 180.77 316.748 173.437C311.681 180.879 303.791 185.962 291.919 185.962C275.415 185.962 263.942 177.757 263.942 163.598C263.942 147.769 275.089 139.129 296.226 139.129H315.119V134.518C315.119 126.023 309.039 120.795 298.615 120.795C289.241 120.795 283.016 125.261 281.821 131.977H265.896C267.67 117.201 280.156 107.798 299.375 107.798C318.594 107.798 331.044 117.491 331.044 135.535V166.103C331.044 169.988 332.383 171.041 335.786 171.041H338.898V171.077ZM315.119 151.073H295.502C285.694 151.073 280.193 154.813 280.193 162.545C280.193 168.971 285.549 173.437 294.163 173.437C307.265 173.437 315.119 165.522 315.119 154.05V151.073Z" fill="#ffffff"></path>
<path d="M373.857 185.09L345.01 108.705H362.274L383.992 167.773L405.56 108.705H422.5L393.509 185.09H373.894H373.857Z" fill="#ffffff"></path>
<path d="M504.523 171.077V185.091H496.198C486.245 185.091 482.519 180.77 482.374 173.437C477.306 180.879 469.417 185.962 457.546 185.962C441.042 185.962 429.569 177.757 429.569 163.598C429.569 147.769 440.714 139.129 461.853 139.129H480.745V134.518C480.745 126.023 474.664 120.795 464.242 120.795C454.866 120.795 448.643 125.261 447.447 131.977H431.521C433.295 117.201 445.782 107.798 465.002 107.798C484.218 107.798 496.671 117.491 496.671 135.535V166.103C496.671 169.988 498.009 171.041 501.411 171.041H504.523V171.077ZM480.708 151.073H461.093C451.285 151.073 445.782 154.813 445.782 162.545C445.782 168.971 451.14 173.437 459.751 173.437C472.857 173.437 480.708 165.522 480.708 154.05V151.073Z" fill="#ffffff"></path>
<path d="M578.061 170.934V185.093H516.208V170.934H539.188V95.8562L516.208 103.48V89.2486L535.861 81.6973H555.26V170.971H578.098L578.061 170.934Z" fill="#ffffff"></path>
<path d="M663.736 171.077V185.091H655.411C645.458 185.091 641.728 180.77 641.586 173.437C636.519 180.879 628.626 185.962 616.755 185.962C600.251 185.962 588.778 177.757 588.778 163.598C588.778 147.769 599.927 139.129 621.062 139.129H639.958V134.518C639.958 126.023 633.877 120.795 623.451 120.795C614.079 120.795 607.852 125.261 606.66 131.977H590.734C592.508 117.201 604.994 107.798 624.211 107.798C643.431 107.798 655.88 117.491 655.88 135.535V166.103C655.88 169.988 657.222 171.041 660.624 171.041H663.736V171.077ZM639.958 151.073H620.339C610.532 151.073 605.028 154.813 605.028 162.545C605.028 168.971 610.386 173.437 619.001 173.437C632.103 173.437 639.958 165.522 639.958 154.05V151.073Z" fill="#ffffff"></path>
<path d="M749.735 141.525V185.091H733.518V143.013C733.518 129.436 727.727 121.993 716.254 121.993C704.203 121.993 696.926 130.779 696.926 145.555V185.091H680.858V108.705H694.828L696.601 118.689C701.2 112.735 708.365 107.798 719.947 107.798C736.16 107.798 749.697 116.584 749.697 141.525H749.735Z" fill="#ffffff"></path>
<path d="M769.458 147.043C769.458 123.481 784.478 107.798 807.387 107.798C826.861 107.798 839.057 118.689 842.027 136.007H825.233C823.135 127.039 816.763 121.521 807.101 121.521C794.323 121.521 785.816 132.122 785.816 147.043C785.816 161.964 794.286 172.239 807.101 172.239C816.617 172.239 823.168 166.575 825.087 157.753H842.027C839.202 175.07 826.246 185.962 806.918 185.962C784.009 185.962 769.42 170.895 769.42 147.043H769.458Z" fill="#ffffff"></path>
<path d="M930.947 141.526V185.091H914.731V142.869C914.731 129.726 908.94 121.994 897.035 121.994C885.125 121.994 877.416 130.961 877.416 145.41V185.091H861.348V80.6787H877.416V118.436C882.629 111.865 890.517 107.835 900.761 107.835C918.606 107.835 930.947 118.436 930.947 141.562V141.526Z" fill="#ffffff"></path>
<path d="M966.742 150.639V151.402C967.178 164.362 975.212 172.894 987.699 172.894C997.219 172.894 1004.49 167.956 1006.59 159.461H1022.66C1019.98 174.528 1007.35 186 988.604 186C964.823 186 949.948 170.498 949.948 147.081C949.948 123.665 964.823 107.836 986.976 107.836C1009.12 107.836 1023.57 121.849 1024 144.249C1024 145.883 1023.85 148.424 1023.57 150.675H966.742V150.639ZM967.323 138.55H1007.31C1005.98 127.222 998.233 120.797 987.084 120.797C977.131 120.797 968.479 127.658 967.286 138.55H967.323Z" fill="#ffffff"></path>
</svg>